<mxfile host="app.diagrams.net" modified="2023-08-16T11:12:59.611Z" agent="Mozilla/5.0 (Windows NT 10.0; Win64; x64) AppleWebKit/537.36 (KHTML, like Gecko) Chrome/115.0.0.0 Safari/537.36 Edg/115.0.1901.188" version="21.6.8" etag="PTmvfhHcC1xl2-v594sC" type="github">
  <diagram name="第 1 页" id="rQygxwfp5Qc3jq_GvNuz">
    <mxGraphModel>
      <root>
        <mxCell id="0" />
        <mxCell id="1" parent="0" />
      </root>
    </mxGraphModel>
  </diagram>
</mxfile>
